<?xml version="1.0" encoding="utf-8"?><!-- Uploaded to: SVG Repo, www.svgrepo.com, Generator: SVG Repo Mixer Tools -->
<svg width="800px" height="800px" viewBox="0 0 128 128" xmlns="http://www.w3.org/2000/svg" xmlns:xlink="http://www.w3.org/1999/xlink" aria-hidden="true" role="img" class="iconify iconify--noto" preserveAspectRatio="xMidYMid meet"><path fill="#f44336" d="M88.85 4h-49.7L4 39.15v49.7L39.15 124h49.7L124 88.85v-49.7z"></path><path fill="#c33" d="M120 87.2L87.2 120H42l-2.85 4h49.7L124 88.85v-49.7L120 42z"></path><path d="M42.88 13H78c4.68 0 7.03-1.71 8.18-3.13c.6-.75.08-1.87-.89-1.87H40.8L9.46 39.35c-.49.49-.09 1.32.59 1.25l1.66-.17c2.77-.28 5.36-1.51 7.32-3.48L42.88 13z" opacity=".9" fill="#ff8a80"></path></svg>